<svg id="SVGRoot" xmlns="http://www.w3.org/2000/svg" viewBox="0 0 175.04 50.46"><defs><style>.cls-1{fill:#606060;}</style></defs><title>Etoro_logo2</title><path id="path828" class="cls-1" d="M28.89,17a1.25,1.25,0,0,0-.94.43s-6.07,6.7-9.65,10.73A31.66,31.66,0,0,0,13.43,35C10.92,40.79,16,44.6,16,44.6a20.06,20.06,0,0,0,11.08,4c-.09-3.68.07-5.85.07-5.85C27.55,38.83,32.1,35,32.1,35c-1.55.11-4.64.1-6.34-1.31s-.63-4.76-.63-4.76l4.41-10.71s.55-.73-.24-1.1a1.11,1.11,0,0,0-.42-.11Zm142.7,0a1.06,1.06,0,0,0-.42.11c-.79.37-.24,1.1-.24,1.1l4.42,10.71s1.08,3.35-.63,4.76-4.8,1.42-6.35,1.31c0,0,4.55,3.87,4.95,7.78,0,0,.16,2.18.07,5.85a20.13,20.13,0,0,0,11.1-4s5.11-3.8,2.59-9.61a31.66,31.66,0,0,0-4.88-6.85c-3.58-4-9.67-10.73-9.67-10.73a1.25,1.25,0,0,0-.94-.43ZM44.52,34.22s-12.41,0-14,10V57.38s.19,9.35,14.61,10a16.09,16.09,0,0,0,13.07-5.92L52,57.76s-3,3.47-6.74,3.26-7.4-1.5-7.4-5.06V53H57.3s1.36.26,1.36-2V44.51S58.85,34.65,44.52,34.22Zm110.27.09s-12.45.22-14.21,10.22v13s.47,8.5,14,9.63c0,0,13.51.75,15.21-9.95V43.56s-1.23-8.82-15-9.25Zm-50.71.09s-12.45.22-14.21,10.22v13s.47,8.5,14,9.63c0,0,13.51.75,15.21-9.95V43.64S117.82,34.82,104.08,34.39Zm33.7.1c-12.82.15-14.34,9.42-14.34,9.42V67h7.24v-22a6.42,6.42,0,0,1,5.82-3.81s2-5.09,5.56-6.38a32.48,32.48,0,0,0-3.67-.26h-.62Zm-61.58.39c-.49,0-1,0-1.49,0-8,.25-11.11.82-15.79,2.1,0,0,3,2.64,3.15,5.68a40.06,40.06,0,0,1,8.68-1.24V67H78V41.62s5.53-.08,8.46,1.11c0,0-.31-2.55,3.42-5.73A50.7,50.7,0,0,0,76.2,34.88ZM45.35,40.73c3.28,0,6.1,1.93,6.14,4.08v2.7H37.87V44.34s1.59-3.44,7.17-3.6h.32Zm109.55.19c6-.05,7.46,2.26,7.46,3.87V55.93s-.82,4.41-7,4.3-7.46-3-7.46-5.16v-9.9S148.91,41,154.9,40.92ZM104.19,41c6-.05,7.46,2.26,7.46,3.87V56s-.82,4.41-7,4.3-7.46-3-7.46-5.16v-9.9S98.2,41.06,104.19,41Z" transform="translate(-12.73 -16.97)"/></svg>