<svg id="Layer_1" data-name="Layer 1" xmlns="http://www.w3.org/2000/svg" viewBox="0 0 462.43 141.5"><defs><style>.cls-1{fill:#606161;}</style></defs><title>Google-Logo2</title><path class="cls-1" d="M250.57,386.51c0,20.35-17.13,35.35-38.16,35.35s-38.16-15-38.16-35.35,17.13-35.35,38.16-35.35S250.57,366,250.57,386.51Zm-16.7,0c0-12.72-9.93-21.42-21.46-21.42S191,373.8,191,386.51a21.46,21.46,0,0,0,42.91,0Z" transform="translate(-52.69 -312.05)"/><path class="cls-1" d="M332.89,386.51c0,20.35-17.13,35.35-38.16,35.35s-38.16-15-38.16-35.35,17.13-35.35,38.16-35.35S332.89,366,332.89,386.51Zm-16.7,0c0-12.72-9.93-21.42-21.46-21.42s-21.46,8.7-21.46,21.42a21.45,21.45,0,0,0,42.91,0Z" transform="translate(-52.69 -312.05)"/><path class="cls-1" d="M411.77,353.29v63.49c0,26.1-16.57,36.78-36.15,36.78-18.43,0-29.56-11.46-33.71-20.83l14.53-5.62a21,21,0,0,0,19.17,12.49c12.52,0,20.3-7.19,20.3-20.72v-5.07h-.58c-3.74,4.29-10.94,8-20,8-19,0-36.44-15.4-36.44-35.21s17.42-35.48,36.44-35.48c9.07,0,16.28,3.72,20,7.91h.58V353.3h15.86ZM397.1,386.63c0-12.45-8.94-21.55-20.3-21.55a21.42,21.42,0,0,0,0,42.84C388.16,407.93,397.1,398.95,397.1,386.63Z" transform="translate(-52.69 -312.05)"/><path class="cls-1" d="M437.93,316.09v103.6H421.65V316.09Z" transform="translate(-52.69 -312.05)"/><path class="cls-1" d="M501.41,398.15l13,8a38.53,38.53,0,0,1-31.69,15.67c-21.61,0-37.75-15.52-37.75-35.35,0-21,16.28-35.35,35.88-35.35s29.4,14.6,32.56,22.49l1.73,4-50.88,19.57c3.89,7.09,9.95,10.71,18.43,10.71s14.41-3.89,18.73-9.78Zm-39.91-12.72,34-13.12c-1.87-4.41-7.51-7.49-14.11-7.49-8.49,0-20.31,6.95-19.88,20.59Z" transform="translate(-52.69 -312.05)"/><path class="cls-1" d="M112.57,377.3v-15H167a46.28,46.28,0,0,1,.81,9.05c0,11.25-3.31,25.16-14,35.08-10.37,10-23.63,15.4-41.19,15.4-32.56,0-59.92-24.64-59.92-54.89s27.37-54.89,59.92-54.89c18,0,30.83,6.56,40.47,15.13l-11.39,10.58a42.82,42.82,0,0,0-29.1-10.71c-23.77,0-42.36,17.8-42.36,39.89s18.59,39.89,42.36,39.89c15.42,0,24.2-5.75,29.82-11,4.56-4.22,7.56-10.28,8.73-18.57Z" transform="translate(-52.69 -312.05)"/></svg>