<?xml version="1.0" encoding="utf-8"?>
<!-- Generator: Adobe Illustrator 21.0.0, SVG Export Plug-In . SVG Version: 6.00 Build 0)  -->
<svg version="1.1" id="Layer_1" xmlns="http://www.w3.org/2000/svg" xmlns:xlink="http://www.w3.org/1999/xlink" x="0px" y="0px"
	 viewBox="0 0 1000 1000" style="enable-background:new 0 0 1000 1000;" xml:space="preserve">
<style type="text/css">
	.st0{fill:#606060;}
</style>
<path class="st0" d="M0,300v27.4h194.6V300H0z M222.2,300v27.4h277.4c0,0-28.3-27.4-65.9-27.4H222.2z M554,300v27.4h167.8l-10-27.4
	H554z M842.1,300l-10,27.4h166.3V300H842.1z M0,353.2v27.4h194.6v-27.4H0z M222.2,353.3v27.3h309.6c0,0-3.6-21.1-9.9-27.3
	C521.9,353.3,222.2,353.3,222.2,353.3z M554,353.3v27.3h186.2l-9.2-27.3C731,353.3,554,353.3,554,353.3z M822.2,353.3l-9.2,27.3
	h185.5v-27.3H822.2z M55.9,406.4v27.4h84.3v-27.4C140.2,406.4,55.9,406.4,55.9,406.4z M278.2,406.4v27.4h84.3v-27.4
	C362.5,406.4,278.2,406.4,278.2,406.4z M444.5,406.4v27.4h84.3c0,0,5.4-14.5,5.4-27.4C534.1,406.4,444.5,406.4,444.5,406.4z
	 M610,406.4v27.4h149.5l-10-27.4C749.5,406.4,610,406.4,610,406.4z M803.9,406.4l-10,27.4h150.2v-27.4
	C944.1,406.4,803.9,406.4,803.9,406.4z M55.9,459.7v27.4h84.3v-27.4H55.9L55.9,459.7z M278.2,459.7v27.4h215.3c0,0,18-14,23.8-27.4
	H278.2z M610,459.7v27.4h84.3v-15.2l5.4,15.2H854l5.7-15.2v15.2h84.3v-27.4H785.8l-8.4,23.2l-8.4-23.2H610z M55.9,512.9v27.4h84.3
	v-27.4H55.9z M278.2,512.9v27.4h239.1c-5.7-13.3-23.8-27.4-23.8-27.4H278.2z M610,512.9v27.4h84.3v-27.4H610z M709.6,512.9
	l10.2,27.4h115.8l9.7-27.4H709.6z M859.8,512.9v27.4h84.3v-27.4H859.8z M55.9,566.2v27.4h84.3v-27.4H55.9z M278.2,566.2v27.4h84.3
	v-27.4H278.2z M444.5,566.2v27.4h89.6c0-12.9-5.4-27.4-5.4-27.4H444.5L444.5,566.2z M610,566.2v27.4h84.3v-27.4H610z M728.7,566.2
	l9.9,27.4h77.6l10-27.4H728.7z M859.8,566.2v27.4h84.3v-27.4H859.8z M1.5,619.4v27.4h194.6v-27.4H1.5z M222.2,619.4v27.4h299.6
	c6.3-6.3,9.9-27.4,9.9-27.4H222.2L222.2,619.4z M555.5,619.4v27.4h138.7v-27.4H555.5z M747.9,619.4l10.2,27.4h39.5l9.5-27.4H747.9z
	 M859.8,619.4v27.4H1000v-27.4H859.8z M1.5,672.6V700h194.6v-27.4H1.5z M222.2,672.6V700h211.5c37.5,0,65.9-27.3,65.9-27.3H222.2z
	 M555.5,672.6V700h138.7v-27.4H555.5z M767.1,672.6l9.8,27.3l1.7,0l9.9-27.3H767.1z M859.8,672.6V700H1000v-27.4H859.8z"/>
</svg>
