<?xml version="1.0" encoding="utf-8"?>
<!-- Generator: Adobe Illustrator 21.0.0, SVG Export Plug-In . SVG Version: 6.00 Build 0)  -->
<svg version="1.1" id="Layer_1" xmlns="http://www.w3.org/2000/svg" xmlns:xlink="http://www.w3.org/1999/xlink" x="0px" y="0px"
	 viewBox="0 0 1033.7 1033.7" style="enable-background:new 0 0 1033.7 1033.7;" xml:space="preserve">
<style type="text/css">
	.st0{fill:#606060;}
</style>
<path class="st0" d="M1033.7,506.4v-18.2h-22.6v-28.3l-0.8,0.2l-21.2,6.5l-0.4,0.1v21.4h-33.5v-11.9c0-5.6,1.2-9.8,3.7-12.6
	c2.4-2.8,5.9-4.2,10.3-4.2c3.2,0,6.5,0.8,9.8,2.2l0.8,0.4v-19.1l-0.4-0.1c-3.1-1.1-7.3-1.7-12.5-1.7c-6.6,0-12.6,1.4-17.8,4.3
	c-5.2,2.8-9.3,6.9-12.2,12.1c-2.9,5.2-4.3,11.1-4.3,17.7v13.1H917v18.2h15.7V583h22.6v-76.6h33.5V555c0,20,9.5,30.2,28.1,30.2
	c3.1,0,6.3-0.4,9.6-1.1c3.4-0.7,5.6-1.4,7-2.2l0.3-0.2v-18.3l-0.9,0.6c-1.2,0.8-2.8,1.5-4.5,2c-1.8,0.5-3.3,0.8-4.5,0.8
	c-4.4,0-7.6-1.2-9.6-3.5c-2-2.3-3.1-6.4-3.1-12.2v-44.7H1033.7L1033.7,506.4z M866.6,566.8c-8.2,0-14.6-2.7-19.2-8.1
	c-4.6-5.4-6.9-13-6.9-22.8c0-10,2.3-17.9,6.9-23.4c4.6-5.4,11-8.2,19-8.2c7.8,0,14.1,2.6,18.5,7.8c4.5,5.2,6.8,13,6.8,23.2
	c0,10.3-2.1,18.2-6.4,23.5C881.2,564.1,874.9,566.8,866.6,566.8 M867.6,485.9c-15.6,0-28,4.6-36.9,13.6c-8.8,9-13.3,21.5-13.3,37.2
	c0,14.8,4.4,26.8,13,35.5c8.6,8.7,20.4,13.1,34.9,13.1c15.1,0,27.3-4.6,36.2-13.8c8.8-9.1,13.3-21.5,13.3-36.8
	c0-15.1-4.2-27.1-12.5-35.7C894,490.3,882.4,485.9,867.6,485.9 M781,485.9c-10.6,0-19.4,2.7-26.1,8.1c-6.8,5.4-10.2,12.5-10.2,21
	c0,4.4,0.7,8.4,2.2,11.8c1.5,3.4,3.7,6.3,6.7,8.8c3,2.5,7.6,5,13.7,7.7c5.1,2.1,9,3.9,11.4,5.3c2.4,1.4,4.1,2.8,5,4.1
	c0.9,1.3,1.4,3.1,1.4,5.4c0,6.4-4.8,9.5-14.6,9.5c-3.6,0-7.8-0.8-12.3-2.3c-4.5-1.5-8.8-3.6-12.6-6.4l-0.9-0.7v21.7l0.3,0.2
	c3.2,1.5,7.2,2.7,12,3.7c4.7,1,9,1.5,12.8,1.5c11.5,0,20.8-2.7,27.6-8.1c6.8-5.4,10.3-12.7,10.3-21.5c0-6.4-1.9-11.9-5.5-16.3
	c-3.6-4.4-10-8.4-18.8-12c-7-2.8-11.5-5.2-13.4-7c-1.8-1.7-2.7-4.2-2.7-7.3c0-2.8,1.1-5,3.4-6.8c2.3-1.8,5.6-2.7,9.6-2.7
	c3.8,0,7.6,0.6,11.4,1.8c3.8,1.2,7.2,2.7,10,4.6l0.9,0.6V490l-0.4-0.2c-2.6-1.1-6-2.1-10.1-2.8C788,486.3,784.3,485.9,781,485.9
	 M685.9,566.8c-8.2,0-14.6-2.7-19.2-8.1c-4.6-5.4-6.9-13-6.9-22.8c0-10,2.3-17.9,6.9-23.4c4.5-5.4,10.9-8.2,19-8.2
	c7.8,0,14.1,2.6,18.5,7.8c4.5,5.2,6.8,13,6.8,23.2c0,10.3-2.1,18.2-6.4,23.5C700.4,564.1,694.1,566.8,685.9,566.8 M686.9,485.9
	c-15.6,0-28,4.6-36.9,13.6c-8.8,9-13.3,21.5-13.3,37.2c0,14.8,4.4,26.8,13,35.5c8.6,8.7,20.4,13.1,34.9,13.1
	c15.1,0,27.3-4.6,36.2-13.8c8.8-9.1,13.3-21.5,13.3-36.8c0-15.1-4.2-27.1-12.5-35.7C713.3,490.3,701.6,485.9,686.9,485.9
	 M602.4,504.6v-16.4h-22.3V583h22.3v-48.5c0-8.2,1.9-15,5.6-20.1c3.6-5.1,8.5-7.6,14.4-7.6c2,0,4.3,0.3,6.7,1
	c2.4,0.7,4.2,1.4,5.2,2.1l0.9,0.7V488l-0.4-0.2c-2.1-0.9-5-1.3-8.7-1.3c-5.6,0-10.6,1.8-14.9,5.3c-3.8,3.1-6.5,7.4-8.6,12.7H602.4z
	 M540.2,485.9c-10.2,0-19.3,2.2-27.1,6.5c-7.8,4.3-13.8,10.5-17.9,18.4c-4.1,7.8-6.1,17-6.1,27.2c0,9,2,17.2,6,24.4
	c4,7.3,9.6,12.9,16.7,16.9c7.1,3.9,15.3,5.9,24.4,5.9c10.6,0,19.6-2.1,26.9-6.3l0.3-0.2v-20.4l-0.9,0.7c-3.3,2.4-7,4.3-10.9,5.7
	c-3.9,1.4-7.5,2.1-10.7,2.1c-8.7,0-15.8-2.7-20.9-8.1c-5.1-5.4-7.7-13-7.7-22.5c0-9.6,2.7-17.4,8-23.1c5.3-5.7,12.3-8.6,20.9-8.6
	c7.3,0,14.5,2.5,21.2,7.4l0.9,0.7v-21.5l-0.3-0.2c-2.5-1.4-6-2.6-10.3-3.5C548.4,486.4,544.2,485.9,540.2,485.9 M473.7,488.2h-22.3
	V583h22.3C473.7,583,473.7,488.2,473.7,488.2z M462.8,447.8c-3.7,0-6.9,1.2-9.5,3.7c-2.6,2.5-4,5.6-4,9.3c0,3.6,1.3,6.7,3.9,9.1
	c2.6,2.4,5.8,3.6,9.5,3.6c3.7,0,7-1.2,9.6-3.6c2.6-2.4,4-5.5,4-9.1c0-3.6-1.3-6.7-3.9-9.2C469.9,449.1,466.7,447.8,462.8,447.8
	 M407.2,481.2V583h22.8V450.7h-31.5l-40,98.2l-38.8-98.2h-32.8V583h21.4V481.2h0.7l41,101.8h16.1l40.4-101.8H407.2L407.2,481.2z"/>
<path class="st0" d="M104.9,511.4H0V406.5h104.9V511.4z"/>
<path class="st0" d="M220.7,511.4H115.8V406.5h104.9L220.7,511.4L220.7,511.4z"/>
<path class="st0" d="M104.9,627.2H0V522.4h104.9V627.2z"/>
<path class="st0" d="M220.7,627.2H115.8V522.4h104.9L220.7,627.2L220.7,627.2z"/>
</svg>
