<svg id="Layer_1" data-name="Layer 1" xmlns="http://www.w3.org/2000/svg" viewBox="0 0 2563.06 534.9"><defs><style>.cls-1{fill:#606161;}</style></defs><title>microsoft-logo1</title><path class="cls-1" d="M1588.23,371.46V327.35h-56V258.76l-2,.48L1477.65,275l-1,.24v51.87H1393.6V298.27c0-13.57,3-23.75,9.17-30.54,6-6.79,14.63-10.18,25.54-10.18a63.8,63.8,0,0,1,24.3,5.33l2,1V217.56l-1-.24c-7.69-2.67-18.1-4.12-31-4.12-16.36,0-31.24,3.39-44.13,10.42a74.16,74.16,0,0,0-30.25,29.33c-7.19,12.6-10.66,26.9-10.66,42.9V327.6H1298.9v44.11h38.92V557.11h56V371.46h83.06V489.25c0,48.47,23.55,73.19,69.67,73.19a117.5,117.5,0,0,0,23.8-2.67c8.43-1.7,13.88-3.39,17.35-5.33l.74-.48V509.61l-2.23,1.45a42.59,42.59,0,0,1-11.16,4.85,45.13,45.13,0,0,1-11.16,1.94c-10.91,0-18.84-2.91-23.8-8.48s-7.69-15.51-7.69-29.57V371.46h55.78ZM1173.94,517.85q-30.49,0-47.6-19.63T1109.23,443c0-24.24,5.7-43.38,17.11-56.71,11.4-13.09,27.27-19.87,47.11-19.87,19.34,0,35,6.3,45.87,18.9,11.16,12.6,16.86,31.51,16.86,56.23,0,25-5.21,44.11-15.87,57-10.16,12.85-25.78,19.39-46.36,19.39m2.48-196.07c-38.68,0-69.42,11.15-91.48,33-21.82,21.81-33,52.11-33,90.16,0,35.87,10.91,65,32.23,86s50.58,31.75,86.53,31.75c37.44,0,67.68-11.15,89.75-33.45,21.82-22.06,33-52.11,33-89.19,0-36.6-10.41-65.68-31-86.52-20.58-21.09-49.34-31.75-86-31.75m-214.7,0c-26.28,0-48.1,6.54-64.71,19.63-16.86,13.09-25.29,30.3-25.29,50.9,0,10.66,1.74,20.36,5.45,28.6a57.78,57.78,0,0,0,16.61,21.33c7.44,6.06,18.84,12.12,34,18.66,12.64,5.09,22.31,9.45,28.26,12.85s10.16,6.79,12.4,9.94,3.47,7.51,3.47,13.09c0,15.51-11.9,23-36.2,23-8.93,0-19.34-1.94-30.49-5.57A113.5,113.5,0,0,1,874,498.7l-2.23-1.7V549.6l.74.48c7.93,3.64,17.85,6.54,29.75,9A157.76,157.76,0,0,0,934,562.69c28.51,0,51.57-6.54,68.43-19.63s25.54-30.78,25.54-52.11c0-15.51-4.71-28.84-13.64-39.51s-24.79-20.36-46.61-29.08c-17.35-6.79-28.51-12.6-33.22-17-4.46-4.12-6.69-10.18-6.69-17.69,0-6.79,2.73-12.12,8.43-16.48s13.88-6.54,23.8-6.54A95.38,95.38,0,0,1,988.25,369c9.42,2.91,17.85,6.54,24.79,11.15l2.23,1.45V331.72l-1-.48a116.83,116.83,0,0,0-25-6.79,169.89,169.89,0,0,0-27.52-2.67M725.94,517.85q-30.49,0-47.6-19.63T661.23,443c0-24.24,5.7-43.38,17.11-56.71,11.16-13.09,27-19.87,47.11-19.87,19.34,0,35,6.3,45.87,18.9,11.16,12.6,16.86,31.51,16.86,56.23,0,25-5.21,44.11-15.87,57-10.41,12.85-26,19.39-46.36,19.39m2.48-196.07c-38.68,0-69.42,11.15-91.48,33-21.82,21.81-33,52.11-33,90.16,0,35.87,10.91,65,32.23,86s50.58,31.75,86.53,31.75c37.44,0,67.68-11.15,89.75-33.45,21.82-22.06,33-52.11,33-89.19,0-36.6-10.41-65.68-31-86.52-20.58-21.09-49.59-31.75-86-31.75M518.92,367.1V327.35H463.63V557.11h55.29V439.57c0-19.87,4.71-36.35,13.88-48.72,8.93-12.36,21.07-18.42,35.7-18.42a61.28,61.28,0,0,1,16.61,2.42c6,1.7,10.41,3.39,12.89,5.09l2.23,1.7V326.87l-1-.48c-5.21-2.18-12.4-3.15-21.57-3.15a57.91,57.91,0,0,0-36.94,12.85c-9.42,7.51-16.12,17.93-21.32,30.78h-.5ZM364.71,321.78c-25.29,0-47.85,5.33-67.19,15.75a106.62,106.62,0,0,0-44.38,44.6C243,401,238,423.33,238,448.05c0,21.81,5,41.69,14.88,59.14a104,104,0,0,0,41.4,41c17.6,9.45,37.93,14.3,60.49,14.3,26.28,0,48.59-5.09,66.69-15.27l.74-.48V497.25l-2.23,1.7a108.83,108.83,0,0,1-27,13.81c-9.67,3.39-18.59,5.09-26.53,5.09-21.57,0-39.17-6.54-51.82-19.63s-19.09-31.51-19.09-54.53c0-23.27,6.69-42.17,19.83-56s30.49-20.84,51.82-20.84c18.1,0,35.95,6.06,52.56,17.93l2.23,1.7V334.38l-.74-.48c-6.2-3.39-14.88-6.3-25.54-8.48a140.2,140.2,0,0,0-31-3.64m-164.87,5.57H144.55V557.11h55.29Zm-27-97.92c-9.17,0-17.11,2.91-23.55,9a29.91,29.91,0,0,0-9.92,22.54A28.66,28.66,0,0,0,149,283a34,34,0,0,0,23.55,8.73c9.17,0,17.35-2.91,23.8-8.73a28.89,28.89,0,0,0,9.92-22.06,29.54,29.54,0,0,0-9.67-22.3c-6.2-6.06-14.13-9.21-23.8-9.21M35,310.39V557.11H91.5V236.47H13.4l-99.17,238-96.2-238h-81.32V557.11h53.06V310.39h1.74l101.65,246.73h39.92L33.23,310.39Z" transform="translate(974.58 -129.34)"/><path class="cls-1" d="M-714.51,383.58H-974.58V129.34h260.07Z" transform="translate(974.58 -129.34)"/><path class="cls-1" d="M-427.41,383.58H-687.49V129.34h260.07V383.58Z" transform="translate(974.58 -129.34)"/><path class="cls-1" d="M-714.51,664.24H-974.58v-254h260.07Z" transform="translate(974.58 -129.34)"/><path class="cls-1" d="M-427.41,664.24H-687.49v-254h260.07v254Z" transform="translate(974.58 -129.34)"/></svg>