<?xml version="1.0" encoding="utf-8"?>
<!-- Generator: Adobe Illustrator 21.0.0, SVG Export Plug-In . SVG Version: 6.00 Build 0)  -->
<svg version="1.1" id="Layer_1" xmlns="http://www.w3.org/2000/svg" xmlns:xlink="http://www.w3.org/1999/xlink" x="0px" y="0px"
	 viewBox="0 0 540 160" style="enable-background:new 0 0 540 160;" xml:space="preserve">
<style type="text/css">
	.st0{fill:#606060;}
</style>
<path class="st0" d="M154.2,81.6l10.3-22.1h17.1L159,102.6h-9.7l-22.6-43.1h17.1L154.2,81.6z M260.7,71.3c6.2,0,9.8,4.5,9.8,9.7
	c0,5.5-3.6,9.7-9.8,9.7c-6.2,0-9.8-4.2-9.8-9.7C250.9,75.8,254.5,71.3,260.7,71.3z M270,102.6h15.3V32.8H270v30.8
	c-3.2-3.8-8.4-5.6-13.4-5.6c-12.8,0-21.6,10.6-21.6,22.9s9,23,21.8,23c5,0,10.3-1.9,13-6.2h0.2L270,102.6L270,102.6z M315.7,71.3
	c6.2,0,9.8,4.5,9.8,9.7c0,5.5-3.6,9.7-9.8,9.7c-6.2,0-9.8-4.2-9.8-9.7C305.9,75.8,309.5,71.3,315.7,71.3z M340.4,59.5h-15.3v4.2
	c-3.2-3.8-8.4-5.6-13.4-5.6c-12.8,0-21.6,10.6-21.6,22.9s9,23,21.8,23c5,0,10.3-1.9,13-6.2h0.2v4.8h15.3V59.5z M365.6,102.6h-15.3
	V72.1H345V59.5h5.4V54c0-6,0.2-10.3,4.4-15.1c3.8-4.5,9.2-6.9,15-6.9c2.4,0,4.5,0.4,6.6,1.5v13.2c-1.8-0.8-3.4-1.4-5.4-1.4
	c-3.9,0-5.3,2.4-5.3,7.2v7h10.7v12.6h-10.7L365.6,102.6L365.6,102.6z M449,65h0.2c3.5-5.2,7.8-7,13.8-7c11.6,0,16.2,7.3,16.2,17.9
	v26.6h-15.3v-21c0-4.1,0.7-11.3-6.9-11.3c-6.2,0-8,4.6-8,10v22.3h-15.3V59.5H449L449,65L449,65z M499.9,74.8
	c0.9-4.5,4.6-6.8,9.1-6.8c4.1,0,7.9,2.7,8.7,6.8H499.9z M531.8,82c0-14.7-8.7-23.9-23.6-23.9c-14,0-23.9,8.7-23.9,23
	c0,14.9,10.7,22.9,25,22.9c9.8,0,19.5-4.6,21.9-14.8h-14.7c-1.7,2.9-4,3.9-7.3,3.9c-6.3,0-9.6-3.4-9.6-9.6h32.2L531.8,82L531.8,82z
	 M229.4,82.1c0,3.2-0.6,6.3-1.8,9.3c-1.2,2.9-3,5.6-5.3,7.9c-2.3,2.3-4.9,4-7.9,5.3c-2.9,1.2-6.1,1.8-9.3,1.8
	c-3.2,0-6.3-0.6-9.3-1.8c-2.9-1.2-5.6-3-7.9-5.3c-2.3-2.3-4-4.9-5.3-7.9c-1.2-2.9-1.8-6.1-1.8-9.3c0-6.4,2.6-12.6,7.1-17.1
	c4.5-4.5,10.7-7.1,17.1-7.1c6.4,0,12.6,2.6,17.1,7.1C226.8,69.5,229.4,75.7,229.4,82.1z M191.6,82c0,2.7,0.8,5.3,2.3,7.5
	c1.5,2.2,3.6,4,6.1,5c2.5,1,5.2,1.3,7.8,0.8c2.6-0.5,5-1.8,6.9-3.7c1.9-1.9,3.2-4.3,3.7-6.9c0.5-2.6,0.3-5.3-0.8-7.8
	c-1-2.5-2.7-4.6-5-6.1c-2.2-1.5-4.8-2.3-7.5-2.3c2.1-6.8,6.9-9.6,6.9-9.6c-10.1,0-18.8,8.4-20.5,19C191.5,78.9,191.6,82,191.6,82z
	 M104.6,80.2c0,26.4-21.4,47.8-47.8,47.8C30.4,128,9,106.6,9,80.2c0-26.4,21.4-47.8,47.8-47.8C83.2,32.4,104.6,53.8,104.6,80.2z
	 M30.1,80c0,14.7,12,26.7,26.7,26.7c14.7,0,26.7-11.9,26.7-26.7c0-14.7-11.9-26.7-26.6-26.7C61,39.8,70.6,34.3,70.6,34.3
	c-19.9,0-37.1,16.5-40.5,37.5C29.8,73.8,30.1,80,30.1,80z M380,80.3c0-13.4,10.8-24.2,24.2-24.2c4.8,0,9.5,1.4,13.5,4.1
	c4,2.7,7.1,6.4,8.9,10.9c1.8,4.4,2.3,9.3,1.4,14c-0.9,4.7-3.2,9-6.6,12.4c-3.4,3.4-7.7,5.7-12.4,6.6c-4.7,0.9-9.6,0.5-14-1.4
	c-4.4-1.8-8.2-4.9-10.9-8.9C381.4,89.7,380,85,380,80.3z M417.8,80.4c0-2.7-0.8-5.3-2.3-7.5c-1.5-2.2-3.6-4-6.1-5
	c-2.5-1-5.2-1.3-7.8-0.8c-2.6,0.5-5,1.8-6.9,3.7c-1.9,1.9-3.2,4.3-3.7,6.9c-0.5,2.6-0.3,5.3,0.8,7.8c1,2.5,2.8,4.6,5,6.1
	c2.2,1.5,4.8,2.3,7.5,2.3c-2.1,6.8-7,9.6-7,9.6c10.1,0,18.8-8.4,20.5-19C417.9,83.5,417.8,80.4,417.8,80.4z"/>
</svg>
